<svg xmlns="http://www.w3.org/2000/svg" viewBox="0 0 1672 941" role="img">
  <image href="ChatGPT%20Image%208%20%E0%B8%A1%E0%B8%B4.%E0%B8%A2.%202569%2014_08_05.png" width="1672" height="941" preserveAspectRatio="xMidYMid slice"/>
</svg>
<svg xmlns="http://www.w3.org/2000/svg" viewBox="0 0 960 720" role="img" aria-labelledby="title desc">
  <title id="title">ชุมชนโฮมสุข ธ.ก.ส. เคลื่อนที่</title>
  <desc id="desc">รถบริการ ธ.ก.ส. เคลื่อนที่ใกล้บ้าน พร้อมตลาดสินค้าชุมชน</desc>
  <rect width="960" height="720" fill="#f6faf7"/>
  <path d="M0 520c104-54 218-72 342-54 126 18 216 88 356 70 97-12 168-55 262-42v226H0z" fill="#dff1e9"/>
  <path d="M0 594c146-45 270-33 374 35 88 58 179 69 285 28 117-45 207-57 301-21v84H0z" fill="#b8decc"/>
  <circle cx="782" cy="126" r="64" fill="#e6b742"/>
  <g transform="translate(92 210)">
    <rect x="30" y="174" width="510" height="180" rx="28" fill="#ffffff" stroke="#c9ddd4" stroke-width="8"/>
    <rect x="72" y="206" width="180" height="74" rx="14" fill="#dff1e9"/>
    <rect x="282" y="206" width="182" height="74" rx="14" fill="#dff1e9"/>
    <path d="M62 174h344l72 84h84v96H30V206c0-18 14-32 32-32z" fill="#0b6b4f"/>
    <path d="M408 190h50l55 62h-105z" fill="#f6faf7"/>
    <rect x="86" y="215" width="146" height="42" rx="8" fill="#ffffff"/>
    <text x="159" y="243" text-anchor="middle" font-family="Tahoma, Arial, sans-serif" font-size="27" font-weight="700" fill="#0b6b4f">ธ.ก.ส.</text>
    <text x="372" y="243" text-anchor="middle" font-family="Tahoma, Arial, sans-serif" font-size="26" font-weight="700" fill="#ffffff">Mobile Service</text>
    <circle cx="136" cy="354" r="44" fill="#083a2f"/>
    <circle cx="136" cy="354" r="20" fill="#e6b742"/>
    <circle cx="450" cy="354" r="44" fill="#083a2f"/>
    <circle cx="450" cy="354" r="20" fill="#e6b742"/>
  </g>
  <g transform="translate(640 310)">
    <rect x="46" y="132" width="190" height="132" rx="18" fill="#fff" stroke="#c9ddd4" stroke-width="7"/>
    <path d="M26 146 141 55l115 91v20H26z" fill="#0b6b4f"/>
    <path d="M62 146 141 84l79 62z" fill="#e6b742"/>
    <rect x="86" y="178" width="46" height="86" rx="8" fill="#083a2f"/>
    <rect x="158" y="180" width="44" height="44" rx="8" fill="#dff1e9"/>
  </g>
  <g transform="translate(612 492)">
    <rect x="0" y="0" width="230" height="70" rx="14" fill="#fff" stroke="#c9ddd4" stroke-width="6"/>
    <rect x="20" y="-38" width="60" height="38" rx="8" fill="#e6b742"/>
    <rect x="90" y="-38" width="60" height="38" rx="8" fill="#0b6b4f"/>
    <rect x="160" y="-38" width="50" height="38" rx="8" fill="#2d77a8"/>
    <circle cx="44" cy="72" r="18" fill="#083a2f"/>
    <circle cx="184" cy="72" r="18" fill="#083a2f"/>
  </g>
  <g fill="#0b6b4f">
    <path d="M756 372c33-56 91-61 123-29-29 9-42 29-36 60-29-25-57-27-87-31z"/>
    <path d="M733 414c23-45 70-57 104-36-24 11-34 29-25 54-28-17-52-17-79-18z"/>
  </g>
  <path d="M754 396c20 61 11 116-28 166" stroke="#083a2f" stroke-width="12" stroke-linecap="round"/>
  <g transform="translate(95 538)" fill="#083a2f">
    <circle cx="0" cy="0" r="18"/>
    <circle cx="74" cy="-20" r="18"/>
    <circle cx="148" cy="0" r="18"/>
    <path d="M-22 70c8-36 36-55 65-55s57 19 65 55z" opacity=".82"/>
    <path d="M52 50c7-31 32-48 58-48s51 17 58 48z" opacity=".82"/>
    <path d="M126 70c8-36 36-55 65-55s57 19 65 55z" opacity=".82"/>
  </g>
</svg>
